solid OpenSCAD_Model
  facet normal -1.000000 -0.000000 -0.000000
    outer loop
      vertex -10.560000 -4.740000 0.000000
      vertex -10.560000 -4.740000 5.000000
      vertex -10.560000 4.570000 0.000000
    endloop
  endfacet
  facet normal -1.000000 0.000000 0.000000
    outer loop
      vertex -10.560000 4.570000 0.000000
      vertex -10.560000 -4.740000 5.000000
      vertex -10.560000 4.570000 5.000000
    endloop
  endfacet
  facet normal -0.983282 -0.182089 -0.000000
    outer loop
      vertex -10.560000 -4.740000 0.000000
      vertex -10.210000 -6.630000 0.000000
      vertex -10.560000 -4.740000 5.000000
    endloop
  endfacet
  facet normal -0.983282 -0.182089 0.000000
    outer loop
      vertex -10.560000 -4.740000 5.000000
      vertex -10.210000 -6.630000 0.000000
      vertex -10.210000 -6.630000 5.000000
    endloop
  endfacet
  facet normal -0.000000 -0.000000 -1.000000
    outer loop
      vertex -10.560000 -4.740000 0.000000
      vertex -10.560000 4.570000 0.000000
      vertex -10.210000 -6.630000 0.000000
    endloop
  endfacet
  facet normal 0.000000 -0.000000 -1.000000
    outer loop
      vertex -10.210000 -6.630000 0.000000
      vertex -10.560000 4.570000 0.000000
      vertex -10.210000 6.390000 0.000000
    endloop
  endfacet
  facet normal 0.000000 0.000000 -1.000000
    outer loop
      vertex -10.210000 -6.630000 0.000000
      vertex -10.210000 6.390000 0.000000
      vertex -9.160000 7.930000 0.000000
    endloop
  endfacet
  facet normal 0.000000 0.000000 -1.000000
    outer loop
      vertex -10.210000 -6.630000 0.000000
      vertex -9.160000 7.930000 0.000000
      vertex -7.620000 8.910000 0.000000
    endloop
  endfacet
  facet normal 0.000000 0.000000 -1.000000
    outer loop
      vertex -10.210000 -6.630000 0.000000
      vertex -7.620000 8.910000 0.000000
      vertex -5.800000 9.260000 0.000000
    endloop
  endfacet
  facet normal 0.000000 0.000000 -1.000000
    outer loop
      vertex -6.360000 5.060000 0.000000
      vertex -5.800000 9.260000 0.000000
      vertex 8.830000 9.260000 0.000000
    endloop
  endfacet
  facet normal 0.000000 0.000000 -1.000000
    outer loop
      vertex 8.830000 5.060000 0.000000
      vertex 11.000000 7.230000 0.000000
      vertex 10.370000 5.620000 0.000000
    endloop
  endfacet
  facet normal 0.000000 -0.000000 -1.000000
    outer loop
      vertex -6.360000 -5.300000 0.000000
      vertex -10.210000 -6.630000 0.000000
      vertex -6.360000 -2.220000 0.000000
    endloop
  endfacet
  facet normal 0.000000 0.000000 -1.000000
    outer loop
      vertex -6.360000 -2.220000 0.000000
      vertex 10.370000 1.420000 0.000000
      vertex 11.000000 -0.120000 0.000000
    endloop
  endfacet
  facet normal 0.000000 0.000000 -1.000000
    outer loop
      vertex -10.210000 -6.630000 0.000000
      vertex -5.800000 9.260000 0.000000
      vertex -6.360000 5.060000 0.000000
    endloop
  endfacet
  facet normal 0.000000 0.000000 -1.000000
    outer loop
      vertex 8.830000 -5.300000 0.000000
      vertex -10.210000 -6.630000 0.000000
      vertex -6.360000 -5.300000 0.000000
    endloop
  endfacet
  facet normal 0.000000 0.000000 -1.000000
    outer loop
      vertex -10.210000 -6.630000 0.000000
      vertex -6.360000 5.060000 0.000000
      vertex -6.360000 1.980000 0.000000
    endloop
  endfacet
  facet normal 0.000000 0.000000 -1.000000
    outer loop
      vertex 8.830000 1.980000 0.000000
      vertex -6.360000 -2.220000 0.000000
      vertex -6.360000 1.980000 0.000000
    endloop
  endfacet
  facet normal 0.000000 0.000000 -1.000000
    outer loop
      vertex -6.360000 -2.220000 0.000000
      vertex 8.830000 1.980000 0.000000
      vertex 10.370000 1.420000 0.000000
    endloop
  endfacet
  facet normal 0.000000 0.000000 -1.000000
    outer loop
      vertex -10.210000 -6.630000 0.000000
      vertex -6.360000 1.980000 0.000000
      vertex -6.360000 -2.220000 0.000000
    endloop
  endfacet
  facet normal 0.000000 0.000000 -1.000000
    outer loop
      vertex 8.830000 -5.300000 0.000000
      vertex 10.370000 -5.860000 0.000000
      vertex -10.210000 -6.630000 0.000000
    endloop
  endfacet
  facet normal 0.000000 0.000000 -1.000000
    outer loop
      vertex 10.370000 -5.860000 0.000000
      vertex 11.000000 -7.400000 0.000000
      vertex -10.210000 -6.630000 0.000000
    endloop
  endfacet
  facet normal 0.000000 0.000000 -1.000000
    outer loop
      vertex -10.210000 -6.630000 0.000000
      vertex 11.000000 -7.400000 0.000000
      vertex 10.370000 -8.940000 0.000000
    endloop
  endfacet
  facet normal 0.000000 0.000000 -1.000000
    outer loop
      vertex -10.210000 -6.630000 0.000000
      vertex 10.370000 -8.940000 0.000000
      vertex 8.830000 -9.500000 0.000000
    endloop
  endfacet
  facet normal 0.000000 0.000000 -1.000000
    outer loop
      vertex -10.210000 -6.630000 0.000000
      vertex 8.830000 -9.500000 0.000000
      vertex -5.800000 -9.500000 0.000000
    endloop
  endfacet
  facet normal 0.000000 0.000000 -1.000000
    outer loop
      vertex -10.210000 -6.630000 0.000000
      vertex -5.800000 -9.500000 0.000000
      vertex -7.620000 -9.150000 0.000000
    endloop
  endfacet
  facet normal 0.000000 0.000000 -1.000000
    outer loop
      vertex -10.210000 -6.630000 0.000000
      vertex -7.620000 -9.150000 0.000000
      vertex -9.160000 -8.100000 0.000000
    endloop
  endfacet
  facet normal 0.000000 0.000000 -1.000000
    outer loop
      vertex -6.360000 5.060000 0.000000
      vertex 8.830000 9.260000 0.000000
      vertex 10.370000 8.700000 0.000000
    endloop
  endfacet
  facet normal 0.000000 0.000000 -1.000000
    outer loop
      vertex -6.360000 5.060000 0.000000
      vertex 10.370000 8.700000 0.000000
      vertex 11.000000 7.230000 0.000000
    endloop
  endfacet
  facet normal -0.000000 0.000000 -1.000000
    outer loop
      vertex -6.360000 5.060000 0.000000
      vertex 11.000000 7.230000 0.000000
      vertex 8.830000 5.060000 0.000000
    endloop
  endfacet
  facet normal 0.000000 0.000000 -1.000000
    outer loop
      vertex -6.360000 -2.220000 0.000000
      vertex 11.000000 -0.120000 0.000000
      vertex 10.370000 -1.660000 0.000000
    endloop
  endfacet
  facet normal -0.000000 0.000000 -1.000000
    outer loop
      vertex -6.360000 -2.220000 0.000000
      vertex 10.370000 -1.660000 0.000000
      vertex 8.830000 -2.220000 0.000000
    endloop
  endfacet
  facet normal -0.982006 0.188847 0.000000
    outer loop
      vertex -10.560000 4.570000 0.000000
      vertex -10.560000 4.570000 5.000000
      vertex -10.210000 6.390000 0.000000
    endloop
  endfacet
  facet normal -0.982006 0.188847 0.000000
    outer loop
      vertex -10.210000 6.390000 0.000000
      vertex -10.560000 4.570000 5.000000
      vertex -10.210000 6.390000 5.000000
    endloop
  endfacet
  facet normal 0.000000 -0.000000 1.000000
    outer loop
      vertex -10.560000 4.570000 5.000000
      vertex -10.560000 -4.740000 5.000000
      vertex -10.210000 -6.630000 5.000000
    endloop
  endfacet
  facet normal 0.000000 0.000000 1.000000
    outer loop
      vertex -7.620000 -9.150000 5.000000
      vertex -10.560000 4.570000 5.000000
      vertex -9.160000 -8.100000 5.000000
    endloop
  endfacet
  facet normal 0.000000 0.000000 1.000000
    outer loop
      vertex -9.160000 -8.100000 5.000000
      vertex -10.560000 4.570000 5.000000
      vertex -10.210000 -6.630000 5.000000
    endloop
  endfacet
  facet normal 0.000000 0.000000 1.000000
    outer loop
      vertex -5.800000 -9.500000 5.000000
      vertex -10.560000 4.570000 5.000000
      vertex -7.620000 -9.150000 5.000000
    endloop
  endfacet
  facet normal -0.000000 -0.000000 1.000000
    outer loop
      vertex -6.360000 -5.300000 5.000000
      vertex -10.560000 4.570000 5.000000
      vertex -5.800000 -9.500000 5.000000
    endloop
  endfacet
  facet normal 0.000000 0.000000 1.000000
    outer loop
      vertex -6.360000 -2.220000 5.000000
      vertex 8.830000 -2.220000 5.000000
      vertex -6.360000 1.980000 5.000000
    endloop
  endfacet
  facet normal -0.000000 -0.000000 1.000000
    outer loop
      vertex 10.370000 -5.860000 5.000000
      vertex 8.830000 -5.300000 5.000000
      vertex 11.000000 -7.400000 5.000000
    endloop
  endfacet
  facet normal 0.000000 0.000000 1.000000
    outer loop
      vertex 8.830000 1.980000 5.000000
      vertex 11.000000 -0.120000 5.000000
      vertex 10.370000 1.420000 5.000000
    endloop
  endfacet
  facet normal -0.000000 0.000000 1.000000
    outer loop
      vertex 8.830000 -9.500000 5.000000
      vertex -6.360000 -5.300000 5.000000
      vertex -5.800000 -9.500000 5.000000
    endloop
  endfacet
  facet normal -0.000000 0.000000 1.000000
    outer loop
      vertex -6.360000 -2.220000 5.000000
      vertex -10.560000 4.570000 5.000000
      vertex -6.360000 -5.300000 5.000000
    endloop
  endfacet
  facet normal 0.000000 0.000000 1.000000
    outer loop
      vertex -6.360000 1.980000 5.000000
      vertex -6.360000 5.060000 5.000000
      vertex -10.560000 4.570000 5.000000
    endloop
  endfacet
  facet normal -0.000000 0.000000 1.000000
    outer loop
      vertex 8.830000 1.980000 5.000000
      vertex -6.360000 1.980000 5.000000
      vertex 8.830000 -2.220000 5.000000
    endloop
  endfacet
  facet normal 0.000000 0.000000 1.000000
    outer loop
      vertex 11.000000 7.230000 5.000000
      vertex -10.560000 4.570000 5.000000
      vertex -6.360000 5.060000 5.000000
    endloop
  endfacet
  facet normal 0.000000 0.000000 1.000000
    outer loop
      vertex 10.370000 5.620000 5.000000
      vertex -6.360000 5.060000 5.000000
      vertex 8.830000 5.060000 5.000000
    endloop
  endfacet
  facet normal 0.000000 0.000000 1.000000
    outer loop
      vertex 11.000000 7.230000 5.000000
      vertex -6.360000 5.060000 5.000000
      vertex 10.370000 5.620000 5.000000
    endloop
  endfacet
  facet normal 0.000000 -0.000000 1.000000
    outer loop
      vertex 10.370000 8.700000 5.000000
      vertex -10.560000 4.570000 5.000000
      vertex 11.000000 7.230000 5.000000
    endloop
  endfacet
  facet normal 0.000000 -0.000000 1.000000
    outer loop
      vertex 8.830000 9.260000 5.000000
      vertex -10.560000 4.570000 5.000000
      vertex 10.370000 8.700000 5.000000
    endloop
  endfacet
  facet normal 0.000000 -0.000000 1.000000
    outer loop
      vertex -5.800000 9.260000 5.000000
      vertex -10.560000 4.570000 5.000000
      vertex 8.830000 9.260000 5.000000
    endloop
  endfacet
  facet normal 0.000000 -0.000000 1.000000
    outer loop
      vertex -7.620000 8.910000 5.000000
      vertex -10.560000 4.570000 5.000000
      vertex -5.800000 9.260000 5.000000
    endloop
  endfacet
  facet normal 0.000000 -0.000000 1.000000
    outer loop
      vertex -9.160000 7.930000 5.000000
      vertex -10.560000 4.570000 5.000000
      vertex -7.620000 8.910000 5.000000
    endloop
  endfacet
  facet normal 0.000000 -0.000000 1.000000
    outer loop
      vertex -10.210000 6.390000 5.000000
      vertex -10.560000 4.570000 5.000000
      vertex -9.160000 7.930000 5.000000
    endloop
  endfacet
  facet normal 0.000000 0.000000 1.000000
    outer loop
      vertex -6.360000 -2.220000 5.000000
      vertex -6.360000 1.980000 5.000000
      vertex -10.560000 4.570000 5.000000
    endloop
  endfacet
  facet normal 0.000000 0.000000 1.000000
    outer loop
      vertex 8.830000 1.980000 5.000000
      vertex 10.370000 -1.660000 5.000000
      vertex 11.000000 -0.120000 5.000000
    endloop
  endfacet
  facet normal 0.000000 -0.000000 1.000000
    outer loop
      vertex 8.830000 1.980000 5.000000
      vertex 8.830000 -2.220000 5.000000
      vertex 10.370000 -1.660000 5.000000
    endloop
  endfacet
  facet normal 0.000000 0.000000 1.000000
    outer loop
      vertex 8.830000 -5.300000 5.000000
      vertex 10.370000 -8.940000 5.000000
      vertex 11.000000 -7.400000 5.000000
    endloop
  endfacet
  facet normal 0.000000 -0.000000 1.000000
    outer loop
      vertex 8.830000 -5.300000 5.000000
      vertex 8.830000 -9.500000 5.000000
      vertex 10.370000 -8.940000 5.000000
    endloop
  endfacet
  facet normal -0.000000 0.000000 1.000000
    outer loop
      vertex 8.830000 -5.300000 5.000000
      vertex -6.360000 -5.300000 5.000000
      vertex 8.830000 -9.500000 5.000000
    endloop
  endfacet
  facet normal -0.813733 -0.581238 -0.000000
    outer loop
      vertex -10.210000 -6.630000 0.000000
      vertex -9.160000 -8.100000 0.000000
      vertex -10.210000 -6.630000 5.000000
    endloop
  endfacet
  facet normal -0.813733 -0.581238 0.000000
    outer loop
      vertex -10.210000 -6.630000 5.000000
      vertex -9.160000 -8.100000 0.000000
      vertex -9.160000 -8.100000 5.000000
    endloop
  endfacet
  facet normal -0.563337 -0.826227 0.000000
    outer loop
      vertex -9.160000 -8.100000 5.000000
      vertex -9.160000 -8.100000 0.000000
      vertex -7.620000 -9.150000 0.000000
    endloop
  endfacet
  facet normal -0.563337 -0.826227 0.000000
    outer loop
      vertex -7.620000 -9.150000 5.000000
      vertex -9.160000 -8.100000 5.000000
      vertex -7.620000 -9.150000 0.000000
    endloop
  endfacet
  facet normal -0.188847 -0.982006 0.000000
    outer loop
      vertex -7.620000 -9.150000 5.000000
      vertex -7.620000 -9.150000 0.000000
      vertex -5.800000 -9.500000 0.000000
    endloop
  endfacet
  facet normal -0.188847 -0.982006 0.000000
    outer loop
      vertex -5.800000 -9.500000 5.000000
      vertex -7.620000 -9.150000 5.000000
      vertex -5.800000 -9.500000 0.000000
    endloop
  endfacet
  facet normal 0.000000 -1.000000 0.000000
    outer loop
      vertex -5.800000 -9.500000 5.000000
      vertex -5.800000 -9.500000 0.000000
      vertex 8.830000 -9.500000 0.000000
    endloop
  endfacet
  facet normal 0.000000 -1.000000 0.000000
    outer loop
      vertex 8.830000 -9.500000 5.000000
      vertex -5.800000 -9.500000 5.000000
      vertex 8.830000 -9.500000 0.000000
    endloop
  endfacet
  facet normal 0.341743 -0.939793 0.000000
    outer loop
      vertex 8.830000 -9.500000 5.000000
      vertex 8.830000 -9.500000 0.000000
      vertex 10.370000 -8.940000 0.000000
    endloop
  endfacet
  facet normal 0.341743 -0.939793 0.000000
    outer loop
      vertex 10.370000 -8.940000 5.000000
      vertex 8.830000 -9.500000 5.000000
      vertex 10.370000 -8.940000 0.000000
    endloop
  endfacet
  facet normal 0.925547 -0.378633 0.000000
    outer loop
      vertex 10.370000 -8.940000 5.000000
      vertex 10.370000 -8.940000 0.000000
      vertex 11.000000 -7.400000 0.000000
    endloop
  endfacet
  facet normal 0.925547 -0.378633 0.000000
    outer loop
      vertex 11.000000 -7.400000 5.000000
      vertex 10.370000 -8.940000 5.000000
      vertex 11.000000 -7.400000 0.000000
    endloop
  endfacet
  facet normal 0.925547 0.378633 0.000000
    outer loop
      vertex 11.000000 -7.400000 0.000000
      vertex 10.370000 -5.860000 0.000000
      vertex 10.370000 -5.860000 5.000000
    endloop
  endfacet
  facet normal 0.925547 0.378633 -0.000000
    outer loop
      vertex 11.000000 -7.400000 5.000000
      vertex 11.000000 -7.400000 0.000000
      vertex 10.370000 -5.860000 5.000000
    endloop
  endfacet
  facet normal 0.341743 0.939793 0.000000
    outer loop
      vertex 8.830000 -5.300000 0.000000
      vertex 8.830000 -5.300000 5.000000
      vertex 10.370000 -5.860000 0.000000
    endloop
  endfacet
  facet normal 0.341743 0.939793 0.000000
    outer loop
      vertex 10.370000 -5.860000 0.000000
      vertex 8.830000 -5.300000 5.000000
      vertex 10.370000 -5.860000 5.000000
    endloop
  endfacet
  facet normal 0.000000 1.000000 0.000000
    outer loop
      vertex -6.360000 -5.300000 0.000000
      vertex -6.360000 -5.300000 5.000000
      vertex 8.830000 -5.300000 0.000000
    endloop
  endfacet
  facet normal 0.000000 1.000000 0.000000
    outer loop
      vertex 8.830000 -5.300000 0.000000
      vertex -6.360000 -5.300000 5.000000
      vertex 8.830000 -5.300000 5.000000
    endloop
  endfacet
  facet normal 1.000000 -0.000000 0.000000
    outer loop
      vertex -6.360000 -5.300000 5.000000
      vertex -6.360000 -5.300000 0.000000
      vertex -6.360000 -2.220000 0.000000
    endloop
  endfacet
  facet normal 1.000000 -0.000000 0.000000
    outer loop
      vertex -6.360000 -2.220000 5.000000
      vertex -6.360000 -5.300000 5.000000
      vertex -6.360000 -2.220000 0.000000
    endloop
  endfacet
  facet normal -0.000000 -1.000000 0.000000
    outer loop
      vertex -6.360000 -2.220000 5.000000
      vertex -6.360000 -2.220000 0.000000
      vertex 8.830000 -2.220000 0.000000
    endloop
  endfacet
  facet normal -0.000000 -1.000000 0.000000
    outer loop
      vertex 8.830000 -2.220000 5.000000
      vertex -6.360000 -2.220000 5.000000
      vertex 8.830000 -2.220000 0.000000
    endloop
  endfacet
  facet normal 0.341743 -0.939793 0.000000
    outer loop
      vertex 8.830000 -2.220000 5.000000
      vertex 8.830000 -2.220000 0.000000
      vertex 10.370000 -1.660000 0.000000
    endloop
  endfacet
  facet normal 0.341743 -0.939793 0.000000
    outer loop
      vertex 10.370000 -1.660000 5.000000
      vertex 8.830000 -2.220000 5.000000
      vertex 10.370000 -1.660000 0.000000
    endloop
  endfacet
  facet normal 0.925547 -0.378633 0.000000
    outer loop
      vertex 10.370000 -1.660000 5.000000
      vertex 10.370000 -1.660000 0.000000
      vertex 11.000000 -0.120000 0.000000
    endloop
  endfacet
  facet normal 0.925547 -0.378633 0.000000
    outer loop
      vertex 11.000000 -0.120000 5.000000
      vertex 10.370000 -1.660000 5.000000
      vertex 11.000000 -0.120000 0.000000
    endloop
  endfacet
  facet normal 0.925547 0.378633 0.000000
    outer loop
      vertex 11.000000 -0.120000 0.000000
      vertex 10.370000 1.420000 0.000000
      vertex 10.370000 1.420000 5.000000
    endloop
  endfacet
  facet normal 0.925547 0.378633 -0.000000
    outer loop
      vertex 11.000000 -0.120000 5.000000
      vertex 11.000000 -0.120000 0.000000
      vertex 10.370000 1.420000 5.000000
    endloop
  endfacet
  facet normal 0.341743 0.939793 0.000000
    outer loop
      vertex 8.830000 1.980000 0.000000
      vertex 8.830000 1.980000 5.000000
      vertex 10.370000 1.420000 0.000000
    endloop
  endfacet
  facet normal 0.341743 0.939793 0.000000
    outer loop
      vertex 10.370000 1.420000 0.000000
      vertex 8.830000 1.980000 5.000000
      vertex 10.370000 1.420000 5.000000
    endloop
  endfacet
  facet normal 0.000000 1.000000 0.000000
    outer loop
      vertex -6.360000 1.980000 0.000000
      vertex -6.360000 1.980000 5.000000
      vertex 8.830000 1.980000 0.000000
    endloop
  endfacet
  facet normal 0.000000 1.000000 0.000000
    outer loop
      vertex 8.830000 1.980000 0.000000
      vertex -6.360000 1.980000 5.000000
      vertex 8.830000 1.980000 5.000000
    endloop
  endfacet
  facet normal 1.000000 0.000000 -0.000000
    outer loop
      vertex -6.360000 1.980000 5.000000
      vertex -6.360000 1.980000 0.000000
      vertex -6.360000 5.060000 0.000000
    endloop
  endfacet
  facet normal 1.000000 0.000000 0.000000
    outer loop
      vertex -6.360000 5.060000 5.000000
      vertex -6.360000 1.980000 5.000000
      vertex -6.360000 5.060000 0.000000
    endloop
  endfacet
  facet normal -0.000000 -1.000000 0.000000
    outer loop
      vertex -6.360000 5.060000 5.000000
      vertex -6.360000 5.060000 0.000000
      vertex 8.830000 5.060000 0.000000
    endloop
  endfacet
  facet normal -0.000000 -1.000000 0.000000
    outer loop
      vertex 8.830000 5.060000 5.000000
      vertex -6.360000 5.060000 5.000000
      vertex 8.830000 5.060000 0.000000
    endloop
  endfacet
  facet normal 0.341743 -0.939793 0.000000
    outer loop
      vertex 8.830000 5.060000 5.000000
      vertex 8.830000 5.060000 0.000000
      vertex 10.370000 5.620000 0.000000
    endloop
  endfacet
  facet normal 0.341743 -0.939793 0.000000
    outer loop
      vertex 10.370000 5.620000 5.000000
      vertex 8.830000 5.060000 5.000000
      vertex 10.370000 5.620000 0.000000
    endloop
  endfacet
  facet normal 0.931243 -0.364399 0.000000
    outer loop
      vertex 10.370000 5.620000 5.000000
      vertex 10.370000 5.620000 0.000000
      vertex 11.000000 7.230000 0.000000
    endloop
  endfacet
  facet normal 0.931243 -0.364399 0.000000
    outer loop
      vertex 11.000000 7.230000 5.000000
      vertex 10.370000 5.620000 5.000000
      vertex 11.000000 7.230000 0.000000
    endloop
  endfacet
  facet normal 0.919145 0.393919 0.000000
    outer loop
      vertex 11.000000 7.230000 0.000000
      vertex 10.370000 8.700000 0.000000
      vertex 10.370000 8.700000 5.000000
    endloop
  endfacet
  facet normal 0.919145 0.393919 -0.000000
    outer loop
      vertex 11.000000 7.230000 5.000000
      vertex 11.000000 7.230000 0.000000
      vertex 10.370000 8.700000 5.000000
    endloop
  endfacet
  facet normal 0.341743 0.939793 0.000000
    outer loop
      vertex 8.830000 9.260000 0.000000
      vertex 8.830000 9.260000 5.000000
      vertex 10.370000 8.700000 0.000000
    endloop
  endfacet
  facet normal 0.341743 0.939793 0.000000
    outer loop
      vertex 10.370000 8.700000 0.000000
      vertex 8.830000 9.260000 5.000000
      vertex 10.370000 8.700000 5.000000
    endloop
  endfacet
  facet normal 0.000000 1.000000 0.000000
    outer loop
      vertex -5.800000 9.260000 0.000000
      vertex -5.800000 9.260000 5.000000
      vertex 8.830000 9.260000 0.000000
    endloop
  endfacet
  facet normal 0.000000 1.000000 0.000000
    outer loop
      vertex 8.830000 9.260000 0.000000
      vertex -5.800000 9.260000 5.000000
      vertex 8.830000 9.260000 5.000000
    endloop
  endfacet
  facet normal -0.188847 0.982006 0.000000
    outer loop
      vertex -7.620000 8.910000 0.000000
      vertex -7.620000 8.910000 5.000000
      vertex -5.800000 9.260000 0.000000
    endloop
  endfacet
  facet normal -0.188847 0.982006 0.000000
    outer loop
      vertex -5.800000 9.260000 0.000000
      vertex -7.620000 8.910000 5.000000
      vertex -5.800000 9.260000 5.000000
    endloop
  endfacet
  facet normal -0.536875 0.843661 0.000000
    outer loop
      vertex -9.160000 7.930000 0.000000
      vertex -9.160000 7.930000 5.000000
      vertex -7.620000 8.910000 0.000000
    endloop
  endfacet
  facet normal -0.536875 0.843661 0.000000
    outer loop
      vertex -7.620000 8.910000 0.000000
      vertex -9.160000 7.930000 5.000000
      vertex -7.620000 8.910000 5.000000
    endloop
  endfacet
  facet normal -0.826227 0.563337 0.000000
    outer loop
      vertex -10.210000 6.390000 0.000000
      vertex -10.210000 6.390000 5.000000
      vertex -9.160000 7.930000 0.000000
    endloop
  endfacet
  facet normal -0.826227 0.563337 0.000000
    outer loop
      vertex -9.160000 7.930000 0.000000
      vertex -10.210000 6.390000 5.000000
      vertex -9.160000 7.930000 5.000000
    endloop
  endfacet
  facet normal -0.000000 0.000000 -1.000000
    outer loop
      vertex -19.000000 0.000000 0.000000
      vertex -18.584804 3.950322 0.000000
      vertex -18.584804 -3.950322 0.000000
    endloop
  endfacet
  facet normal 0.000000 -0.000000 -1.000000
    outer loop
      vertex -18.584804 -3.950322 0.000000
      vertex -18.584804 3.950322 0.000000
      vertex -17.357364 7.727996 0.000000
    endloop
  endfacet
  facet normal 0.000000 0.000000 -1.000000
    outer loop
      vertex -18.584804 -3.950322 0.000000
      vertex -17.357364 7.727996 0.000000
      vertex -15.371323 11.167920 0.000000
    endloop
  endfacet
  facet normal 0.000000 0.000000 -1.000000
    outer loop
      vertex -15.530273 6.914523 0.000000
      vertex -15.371323 11.167920 0.000000
      vertex -12.713482 14.119752 0.000000
    endloop
  endfacet
  facet normal 0.000000 -0.000000 -1.000000
    outer loop
      vertex -11.375220 12.633462 0.000000
      vertex -12.713482 14.119752 0.000000
      vertex -9.500000 16.454483 0.000000
    endloop
  endfacet
  facet normal 0.000000 -0.000000 -1.000000
    outer loop
      vertex -8.500000 14.722432 0.000000
      vertex -9.500000 16.454483 0.000000
      vertex -5.871323 18.070074 0.000000
    endloop
  endfacet
  facet normal 0.000000 -0.000000 -1.000000
    outer loop
      vertex -5.253289 16.167961 0.000000
      vertex -5.871323 18.070074 0.000000
      vertex -1.986041 18.895916 0.000000
    endloop
  endfacet
  facet normal 0.000000 -0.000000 -1.000000
    outer loop
      vertex -1.776984 16.906872 0.000000
      vertex -1.986041 18.895916 0.000000
      vertex 1.986041 18.895916 0.000000
    endloop
  endfacet
  facet normal 0.000000 0.000000 -1.000000
    outer loop
      vertex 1.776984 16.906872 0.000000
      vertex 1.986041 18.895916 0.000000
      vertex 5.871323 18.070074 0.000000
    endloop
  endfacet
  facet normal 0.000000 0.000000 -1.000000
    outer loop
      vertex 5.253289 16.167961 0.000000
      vertex 5.871323 18.070074 0.000000
      vertex 9.500000 16.454483 0.000000
    endloop
  endfacet
  facet normal -0.000000 0.000000 -1.000000
    outer loop
      vertex 8.500000 14.722432 0.000000
      vertex 9.500000 16.454483 0.000000
      vertex 12.713482 14.119752 0.000000
    endloop
  endfacet
  facet normal -0.000000 0.000000 -1.000000
    outer loop
      vertex 11.375220 12.633462 0.000000
      vertex 12.713482 14.119752 0.000000
      vertex 15.371323 11.167920 0.000000
    endloop
  endfacet
  facet normal -0.000000 0.000000 -1.000000
    outer loop
      vertex 13.753289 9.992349 0.000000
      vertex 15.371323 11.167920 0.000000
      vertex 17.357364 7.727996 0.000000
    endloop
  endfacet
  facet normal 0.000000 0.000000 -1.000000
    outer loop
      vertex 16.628509 3.534499 0.000000
      vertex 17.357364 7.727996 0.000000
      vertex 18.584804 3.950322 0.000000
    endloop
  endfacet
  facet normal -0.000000 0.000000 -1.000000
    outer loop
      vertex 17.000000 0.000000 0.000000
      vertex 18.584804 3.950322 0.000000
      vertex 19.000000 0.000000 0.000000
    endloop
  endfacet
  facet normal -0.000000 0.000000 -1.000000
    outer loop
      vertex 16.628509 -3.534499 0.000000
      vertex 19.000000 0.000000 0.000000
      vertex 18.584804 -3.950322 0.000000
    endloop
  endfacet
  facet normal -0.000000 0.000000 -1.000000
    outer loop
      vertex 15.530273 -6.914523 0.000000
      vertex 18.584804 -3.950322 0.000000
      vertex 17.357364 -7.727996 0.000000
    endloop
  endfacet
  facet normal -0.000000 0.000000 -1.000000
    outer loop
      vertex 13.753289 -9.992349 0.000000
      vertex 17.357364 -7.727996 0.000000
      vertex 15.371323 -11.167920 0.000000
    endloop
  endfacet
  facet normal -0.000000 0.000000 -1.000000
    outer loop
      vertex 11.375220 -12.633462 0.000000
      vertex 15.371323 -11.167920 0.000000
      vertex 12.713482 -14.119752 0.000000
    endloop
  endfacet
  facet normal -0.000000 0.000000 -1.000000
    outer loop
      vertex 8.500000 -14.722432 0.000000
      vertex 12.713482 -14.119752 0.000000
      vertex 9.500000 -16.454483 0.000000
    endloop
  endfacet
  facet normal 0.000000 0.000000 -1.000000
    outer loop
      vertex 5.253289 -16.167961 0.000000
      vertex 9.500000 -16.454483 0.000000
      vertex 5.871323 -18.070074 0.000000
    endloop
  endfacet
  facet normal 0.000000 0.000000 -1.000000
    outer loop
      vertex 1.776984 -16.906872 0.000000
      vertex 5.871323 -18.070074 0.000000
      vertex 1.986041 -18.895916 0.000000
    endloop
  endfacet
  facet normal 0.000000 0.000000 -1.000000
    outer loop
      vertex -1.776984 -16.906872 0.000000
      vertex 1.986041 -18.895916 0.000000
      vertex -1.986041 -18.895916 0.000000
    endloop
  endfacet
  facet normal 0.000000 0.000000 -1.000000
    outer loop
      vertex -8.500000 -14.722432 0.000000
      vertex -1.986041 -18.895916 0.000000
      vertex -5.871323 -18.070074 0.000000
    endloop
  endfacet
  facet normal 0.000000 0.000000 -1.000000
    outer loop
      vertex -11.375220 -12.633462 0.000000
      vertex -5.871323 -18.070074 0.000000
      vertex -9.500000 -16.454483 0.000000
    endloop
  endfacet
  facet normal 0.000000 0.000000 -1.000000
    outer loop
      vertex -18.584804 -3.950322 0.000000
      vertex -9.500000 -16.454483 0.000000
      vertex -12.713482 -14.119752 0.000000
    endloop
  endfacet
  facet normal 0.000000 0.000000 -1.000000
    outer loop
      vertex -18.584804 -3.950322 0.000000
      vertex -12.713482 -14.119752 0.000000
      vertex -15.371323 -11.167920 0.000000
    endloop
  endfacet
  facet normal 0.000000 0.000000 -1.000000
    outer loop
      vertex -18.584804 -3.950322 0.000000
      vertex -15.371323 -11.167920 0.000000
      vertex -17.357364 -7.727996 0.000000
    endloop
  endfacet
  facet normal 0.000000 0.000000 -1.000000
    outer loop
      vertex -16.628509 -3.534499 0.000000
      vertex -18.584804 -3.950322 0.000000
      vertex -17.000000 0.000000 0.000000
    endloop
  endfacet
  facet normal 0.000000 0.000000 -1.000000
    outer loop
      vertex -15.530273 -6.914523 0.000000
      vertex -18.584804 -3.950322 0.000000
      vertex -16.628509 -3.534499 0.000000
    endloop
  endfacet
  facet normal 0.000000 0.000000 -1.000000
    outer loop
      vertex -13.753289 -9.992349 0.000000
      vertex -18.584804 -3.950322 0.000000
      vertex -15.530273 -6.914523 0.000000
    endloop
  endfacet
  facet normal 0.000000 0.000000 -1.000000
    outer loop
      vertex -8.500000 -14.722432 0.000000
      vertex -5.871323 -18.070074 0.000000
      vertex -11.375220 -12.633462 0.000000
    endloop
  endfacet
  facet normal 0.000000 0.000000 -1.000000
    outer loop
      vertex -18.584804 -3.950322 0.000000
      vertex -13.753289 -9.992349 0.000000
      vertex -9.500000 -16.454483 0.000000
    endloop
  endfacet
  facet normal 0.000000 0.000000 -1.000000
    outer loop
      vertex -13.753289 -9.992349 0.000000
      vertex -11.375220 -12.633462 0.000000
      vertex -9.500000 -16.454483 0.000000
    endloop
  endfacet
  facet normal 0.000000 0.000000 -1.000000
    outer loop
      vertex -5.253289 -16.167961 0.000000
      vertex -1.986041 -18.895916 0.000000
      vertex -8.500000 -14.722432 0.000000
    endloop
  endfacet
  facet normal 0.000000 0.000000 -1.000000
    outer loop
      vertex -1.776984 -16.906872 0.000000
      vertex -1.986041 -18.895916 0.000000
      vertex -5.253289 -16.167961 0.000000
    endloop
  endfacet
  facet normal -0.000000 0.000000 -1.000000
    outer loop
      vertex 16.628509 3.534499 0.000000
      vertex 18.584804 3.950322 0.000000
      vertex 17.000000 0.000000 0.000000
    endloop
  endfacet
  facet normal -0.000000 0.000000 -1.000000
    outer loop
      vertex 15.530273 6.914523 0.000000
      vertex 17.357364 7.727996 0.000000
      vertex 16.628509 3.534499 0.000000
    endloop
  endfacet
  facet normal 0.000000 0.000000 -1.000000
    outer loop
      vertex 17.000000 0.000000 0.000000
      vertex 19.000000 0.000000 0.000000
      vertex 16.628509 -3.534499 0.000000
    endloop
  endfacet
  facet normal 0.000000 0.000000 -1.000000
    outer loop
      vertex 16.628509 -3.534499 0.000000
      vertex 18.584804 -3.950322 0.000000
      vertex 15.530273 -6.914523 0.000000
    endloop
  endfacet
  facet normal 0.000000 0.000000 -1.000000
    outer loop
      vertex 15.530273 -6.914523 0.000000
      vertex 17.357364 -7.727996 0.000000
      vertex 13.753289 -9.992349 0.000000
    endloop
  endfacet
  facet normal 0.000000 0.000000 -1.000000
    outer loop
      vertex 13.753289 -9.992349 0.000000
      vertex 15.371323 -11.167920 0.000000
      vertex 11.375220 -12.633462 0.000000
    endloop
  endfacet
  facet normal 0.000000 0.000000 -1.000000
    outer loop
      vertex 11.375220 -12.633462 0.000000
      vertex 12.713482 -14.119752 0.000000
      vertex 8.500000 -14.722432 0.000000
    endloop
  endfacet
  facet normal 0.000000 0.000000 -1.000000
    outer loop
      vertex 8.500000 -14.722432 0.000000
      vertex 9.500000 -16.454483 0.000000
      vertex 5.253289 -16.167961 0.000000
    endloop
  endfacet
  facet normal 0.000000 0.000000 -1.000000
    outer loop
      vertex 5.253289 -16.167961 0.000000
      vertex 5.871323 -18.070074 0.000000
      vertex 1.776984 -16.906872 0.000000
    endloop
  endfacet
  facet normal 0.000000 0.000000 -1.000000
    outer loop
      vertex 1.776984 -16.906872 0.000000
      vertex 1.986041 -18.895916 0.000000
      vertex -1.776984 -16.906872 0.000000
    endloop
  endfacet
  facet normal 0.000000 0.000000 -1.000000
    outer loop
      vertex -13.753289 9.992349 0.000000
      vertex -12.713482 14.119752 0.000000
      vertex -11.375220 12.633462 0.000000
    endloop
  endfacet
  facet normal 0.000000 0.000000 -1.000000
    outer loop
      vertex -15.530273 6.914523 0.000000
      vertex -12.713482 14.119752 0.000000
      vertex -13.753289 9.992349 0.000000
    endloop
  endfacet
  facet normal 0.000000 0.000000 -1.000000
    outer loop
      vertex -16.628509 3.534499 0.000000
      vertex -15.371323 11.167920 0.000000
      vertex -15.530273 6.914523 0.000000
    endloop
  endfacet
  facet normal 0.000000 0.000000 -1.000000
    outer loop
      vertex -18.584804 -3.950322 0.000000
      vertex -15.371323 11.167920 0.000000
      vertex -16.628509 3.534499 0.000000
    endloop
  endfacet
  facet normal 0.000000 0.000000 -1.000000
    outer loop
      vertex -11.375220 12.633462 0.000000
      vertex -9.500000 16.454483 0.000000
      vertex -8.500000 14.722432 0.000000
    endloop
  endfacet
  facet normal 0.000000 -0.000000 -1.000000
    outer loop
      vertex -17.000000 0.000000 0.000000
      vertex -18.584804 -3.950322 0.000000
      vertex -16.628509 3.534499 0.000000
    endloop
  endfacet
  facet normal 0.000000 0.000000 -1.000000
    outer loop
      vertex -8.500000 14.722432 0.000000
      vertex -5.871323 18.070074 0.000000
      vertex -5.253289 16.167961 0.000000
    endloop
  endfacet
  facet normal 0.000000 0.000000 -1.000000
    outer loop
      vertex -5.253289 16.167961 0.000000
      vertex -1.986041 18.895916 0.000000
      vertex -1.776984 16.906872 0.000000
    endloop
  endfacet
  facet normal -0.000000 0.000000 -1.000000
    outer loop
      vertex -1.776984 16.906872 0.000000
      vertex 1.986041 18.895916 0.000000
      vertex 1.776984 16.906872 0.000000
    endloop
  endfacet
  facet normal -0.000000 0.000000 -1.000000
    outer loop
      vertex 1.776984 16.906872 0.000000
      vertex 5.871323 18.070074 0.000000
      vertex 5.253289 16.167961 0.000000
    endloop
  endfacet
  facet normal -0.000000 0.000000 -1.000000
    outer loop
      vertex 5.253289 16.167961 0.000000
      vertex 9.500000 16.454483 0.000000
      vertex 8.500000 14.722432 0.000000
    endloop
  endfacet
  facet normal 0.000000 0.000000 -1.000000
    outer loop
      vertex 8.500000 14.722432 0.000000
      vertex 12.713482 14.119752 0.000000
      vertex 11.375220 12.633462 0.000000
    endloop
  endfacet
  facet normal 0.000000 0.000000 -1.000000
    outer loop
      vertex 11.375220 12.633462 0.000000
      vertex 15.371323 11.167920 0.000000
      vertex 13.753289 9.992349 0.000000
    endloop
  endfacet
  facet normal 0.000000 0.000000 -1.000000
    outer loop
      vertex 13.753289 9.992349 0.000000
      vertex 17.357364 7.727996 0.000000
      vertex 15.530273 6.914523 0.000000
    endloop
  endfacet
  facet normal -0.994522 0.104529 0.000000
    outer loop
      vertex -19.000000 0.000000 0.000000
      vertex -19.000000 0.000000 5.000000
      vertex -18.584804 3.950322 0.000000
    endloop
  endfacet
  facet normal -0.994522 0.104529 0.000000
    outer loop
      vertex -18.584804 3.950322 0.000000
      vertex -19.000000 0.000000 5.000000
      vertex -18.584804 3.950322 5.000000
    endloop
  endfacet
  facet normal -0.994522 -0.104529 -0.000000
    outer loop
      vertex -19.000000 0.000000 0.000000
      vertex -18.584804 -3.950322 0.000000
      vertex -19.000000 0.000000 5.000000
    endloop
  endfacet
  facet normal -0.994522 -0.104529 0.000000
    outer loop
      vertex -19.000000 0.000000 5.000000
      vertex -18.584804 -3.950322 0.000000
      vertex -18.584804 -3.950322 5.000000
    endloop
  endfacet
  facet normal -0.951057 -0.309017 -0.000000
    outer loop
      vertex -18.584804 -3.950322 0.000000
      vertex -17.357364 -7.727996 0.000000
      vertex -18.584804 -3.950322 5.000000
    endloop
  endfacet
  facet normal -0.951057 -0.309017 0.000000
    outer loop
      vertex -18.584804 -3.950322 5.000000
      vertex -17.357364 -7.727996 0.000000
      vertex -17.357364 -7.727996 5.000000
    endloop
  endfacet
  facet normal -0.866025 -0.500000 -0.000000
    outer loop
      vertex -17.357364 -7.727996 0.000000
      vertex -15.371323 -11.167920 0.000000
      vertex -17.357364 -7.727996 5.000000
    endloop
  endfacet
  facet normal -0.866025 -0.500000 0.000000
    outer loop
      vertex -17.357364 -7.727996 5.000000
      vertex -15.371323 -11.167920 0.000000
      vertex -15.371323 -11.167920 5.000000
    endloop
  endfacet
  facet normal -0.743145 -0.669131 -0.000000
    outer loop
      vertex -15.371323 -11.167920 0.000000
      vertex -12.713482 -14.119752 0.000000
      vertex -15.371323 -11.167920 5.000000
    endloop
  endfacet
  facet normal -0.743145 -0.669131 0.000000
    outer loop
      vertex -15.371323 -11.167920 5.000000
      vertex -12.713482 -14.119752 0.000000
      vertex -12.713482 -14.119752 5.000000
    endloop
  endfacet
  facet normal -0.587785 -0.809017 0.000000
    outer loop
      vertex -12.713482 -14.119752 5.000000
      vertex -12.713482 -14.119752 0.000000
      vertex -9.500000 -16.454483 0.000000
    endloop
  endfacet
  facet normal -0.587785 -0.809017 0.000000
    outer loop
      vertex -9.500000 -16.454483 5.000000
      vertex -12.713482 -14.119752 5.000000
      vertex -9.500000 -16.454483 0.000000
    endloop
  endfacet
  facet normal -0.406737 -0.913545 0.000000
    outer loop
      vertex -9.500000 -16.454483 5.000000
      vertex -9.500000 -16.454483 0.000000
      vertex -5.871323 -18.070074 0.000000
    endloop
  endfacet
  facet normal -0.406737 -0.913545 0.000000
    outer loop
      vertex -5.871323 -18.070074 5.000000
      vertex -9.500000 -16.454483 5.000000
      vertex -5.871323 -18.070074 0.000000
    endloop
  endfacet
  facet normal -0.207912 -0.978148 0.000000
    outer loop
      vertex -5.871323 -18.070074 5.000000
      vertex -5.871323 -18.070074 0.000000
      vertex -1.986041 -18.895916 0.000000
    endloop
  endfacet
  facet normal -0.207912 -0.978148 0.000000
    outer loop
      vertex -1.986041 -18.895916 5.000000
      vertex -5.871323 -18.070074 5.000000
      vertex -1.986041 -18.895916 0.000000
    endloop
  endfacet
  facet normal 0.000000 -1.000000 0.000000
    outer loop
      vertex -1.986041 -18.895916 5.000000
      vertex -1.986041 -18.895916 0.000000
      vertex 1.986041 -18.895916 0.000000
    endloop
  endfacet
  facet normal 0.000000 -1.000000 0.000000
    outer loop
      vertex 1.986041 -18.895916 5.000000
      vertex -1.986041 -18.895916 5.000000
      vertex 1.986041 -18.895916 0.000000
    endloop
  endfacet
  facet normal 0.207912 -0.978148 0.000000
    outer loop
      vertex 1.986041 -18.895916 5.000000
      vertex 1.986041 -18.895916 0.000000
      vertex 5.871323 -18.070074 0.000000
    endloop
  endfacet
  facet normal 0.207912 -0.978148 0.000000
    outer loop
      vertex 5.871323 -18.070074 5.000000
      vertex 1.986041 -18.895916 5.000000
      vertex 5.871323 -18.070074 0.000000
    endloop
  endfacet
  facet normal 0.406737 -0.913545 0.000000
    outer loop
      vertex 5.871323 -18.070074 5.000000
      vertex 5.871323 -18.070074 0.000000
      vertex 9.500000 -16.454483 0.000000
    endloop
  endfacet
  facet normal 0.406737 -0.913545 0.000000
    outer loop
      vertex 9.500000 -16.454483 5.000000
      vertex 5.871323 -18.070074 5.000000
      vertex 9.500000 -16.454483 0.000000
    endloop
  endfacet
  facet normal 0.587785 -0.809017 0.000000
    outer loop
      vertex 9.500000 -16.454483 5.000000
      vertex 9.500000 -16.454483 0.000000
      vertex 12.713482 -14.119752 0.000000
    endloop
  endfacet
  facet normal 0.587785 -0.809017 0.000000
    outer loop
      vertex 12.713482 -14.119752 5.000000
      vertex 9.500000 -16.454483 5.000000
      vertex 12.713482 -14.119752 0.000000
    endloop
  endfacet
  facet normal 0.743145 -0.669131 0.000000
    outer loop
      vertex 12.713482 -14.119752 5.000000
      vertex 12.713482 -14.119752 0.000000
      vertex 15.371323 -11.167920 0.000000
    endloop
  endfacet
  facet normal 0.743145 -0.669131 0.000000
    outer loop
      vertex 15.371323 -11.167920 5.000000
      vertex 12.713482 -14.119752 5.000000
      vertex 15.371323 -11.167920 0.000000
    endloop
  endfacet
  facet normal 0.866025 -0.500000 0.000000
    outer loop
      vertex 15.371323 -11.167920 5.000000
      vertex 15.371323 -11.167920 0.000000
      vertex 17.357364 -7.727996 0.000000
    endloop
  endfacet
  facet normal 0.866025 -0.500000 0.000000
    outer loop
      vertex 17.357364 -7.727996 5.000000
      vertex 15.371323 -11.167920 5.000000
      vertex 17.357364 -7.727996 0.000000
    endloop
  endfacet
  facet normal 0.951057 -0.309017 0.000000
    outer loop
      vertex 17.357364 -7.727996 5.000000
      vertex 17.357364 -7.727996 0.000000
      vertex 18.584804 -3.950322 0.000000
    endloop
  endfacet
  facet normal 0.951057 -0.309017 0.000000
    outer loop
      vertex 18.584804 -3.950322 5.000000
      vertex 17.357364 -7.727996 5.000000
      vertex 18.584804 -3.950322 0.000000
    endloop
  endfacet
  facet normal 0.994522 -0.104529 0.000000
    outer loop
      vertex 18.584804 -3.950322 5.000000
      vertex 18.584804 -3.950322 0.000000
      vertex 19.000000 0.000000 0.000000
    endloop
  endfacet
  facet normal 0.994522 -0.104529 0.000000
    outer loop
      vertex 19.000000 0.000000 5.000000
      vertex 18.584804 -3.950322 5.000000
      vertex 19.000000 0.000000 0.000000
    endloop
  endfacet
  facet normal 0.994522 0.104529 0.000000
    outer loop
      vertex 19.000000 0.000000 0.000000
      vertex 18.584804 3.950322 0.000000
      vertex 18.584804 3.950322 5.000000
    endloop
  endfacet
  facet normal 0.994522 0.104529 -0.000000
    outer loop
      vertex 19.000000 0.000000 5.000000
      vertex 19.000000 0.000000 0.000000
      vertex 18.584804 3.950322 5.000000
    endloop
  endfacet
  facet normal 0.951057 0.309017 0.000000
    outer loop
      vertex 18.584804 3.950322 0.000000
      vertex 17.357364 7.727996 0.000000
      vertex 17.357364 7.727996 5.000000
    endloop
  endfacet
  facet normal 0.951057 0.309017 -0.000000
    outer loop
      vertex 18.584804 3.950322 5.000000
      vertex 18.584804 3.950322 0.000000
      vertex 17.357364 7.727996 5.000000
    endloop
  endfacet
  facet normal 0.866025 0.500000 0.000000
    outer loop
      vertex 17.357364 7.727996 0.000000
      vertex 15.371323 11.167920 0.000000
      vertex 15.371323 11.167920 5.000000
    endloop
  endfacet
  facet normal 0.866025 0.500000 -0.000000
    outer loop
      vertex 17.357364 7.727996 5.000000
      vertex 17.357364 7.727996 0.000000
      vertex 15.371323 11.167920 5.000000
    endloop
  endfacet
  facet normal 0.743145 0.669131 0.000000
    outer loop
      vertex 15.371323 11.167920 0.000000
      vertex 12.713482 14.119752 0.000000
      vertex 12.713482 14.119752 5.000000
    endloop
  endfacet
  facet normal 0.743145 0.669131 -0.000000
    outer loop
      vertex 15.371323 11.167920 5.000000
      vertex 15.371323 11.167920 0.000000
      vertex 12.713482 14.119752 5.000000
    endloop
  endfacet
  facet normal 0.587785 0.809017 0.000000
    outer loop
      vertex 9.500000 16.454483 0.000000
      vertex 9.500000 16.454483 5.000000
      vertex 12.713482 14.119752 0.000000
    endloop
  endfacet
  facet normal 0.587785 0.809017 0.000000
    outer loop
      vertex 12.713482 14.119752 0.000000
      vertex 9.500000 16.454483 5.000000
      vertex 12.713482 14.119752 5.000000
    endloop
  endfacet
  facet normal 0.406737 0.913545 0.000000
    outer loop
      vertex 5.871323 18.070074 0.000000
      vertex 5.871323 18.070074 5.000000
      vertex 9.500000 16.454483 0.000000
    endloop
  endfacet
  facet normal 0.406737 0.913545 0.000000
    outer loop
      vertex 9.500000 16.454483 0.000000
      vertex 5.871323 18.070074 5.000000
      vertex 9.500000 16.454483 5.000000
    endloop
  endfacet
  facet normal 0.207912 0.978148 0.000000
    outer loop
      vertex 1.986041 18.895916 0.000000
      vertex 1.986041 18.895916 5.000000
      vertex 5.871323 18.070074 0.000000
    endloop
  endfacet
  facet normal 0.207912 0.978148 0.000000
    outer loop
      vertex 5.871323 18.070074 0.000000
      vertex 1.986041 18.895916 5.000000
      vertex 5.871323 18.070074 5.000000
    endloop
  endfacet
  facet normal 0.000000 1.000000 0.000000
    outer loop
      vertex -1.986041 18.895916 0.000000
      vertex -1.986041 18.895916 5.000000
      vertex 1.986041 18.895916 0.000000
    endloop
  endfacet
  facet normal 0.000000 1.000000 0.000000
    outer loop
      vertex 1.986041 18.895916 0.000000
      vertex -1.986041 18.895916 5.000000
      vertex 1.986041 18.895916 5.000000
    endloop
  endfacet
  facet normal -0.207912 0.978148 0.000000
    outer loop
      vertex -5.871323 18.070074 0.000000
      vertex -5.871323 18.070074 5.000000
      vertex -1.986041 18.895916 0.000000
    endloop
  endfacet
  facet normal -0.207912 0.978148 0.000000
    outer loop
      vertex -1.986041 18.895916 0.000000
      vertex -5.871323 18.070074 5.000000
      vertex -1.986041 18.895916 5.000000
    endloop
  endfacet
  facet normal -0.406737 0.913545 0.000000
    outer loop
      vertex -9.500000 16.454483 0.000000
      vertex -9.500000 16.454483 5.000000
      vertex -5.871323 18.070074 0.000000
    endloop
  endfacet
  facet normal -0.406737 0.913545 0.000000
    outer loop
      vertex -5.871323 18.070074 0.000000
      vertex -9.500000 16.454483 5.000000
      vertex -5.871323 18.070074 5.000000
    endloop
  endfacet
  facet normal -0.587785 0.809017 0.000000
    outer loop
      vertex -12.713482 14.119752 0.000000
      vertex -12.713482 14.119752 5.000000
      vertex -9.500000 16.454483 0.000000
    endloop
  endfacet
  facet normal -0.587785 0.809017 0.000000
    outer loop
      vertex -9.500000 16.454483 0.000000
      vertex -12.713482 14.119752 5.000000
      vertex -9.500000 16.454483 5.000000
    endloop
  endfacet
  facet normal -0.743145 0.669131 0.000000
    outer loop
      vertex -15.371323 11.167920 0.000000
      vertex -15.371323 11.167920 5.000000
      vertex -12.713482 14.119752 0.000000
    endloop
  endfacet
  facet normal -0.743145 0.669131 0.000000
    outer loop
      vertex -12.713482 14.119752 0.000000
      vertex -15.371323 11.167920 5.000000
      vertex -12.713482 14.119752 5.000000
    endloop
  endfacet
  facet normal -0.866025 0.500000 0.000000
    outer loop
      vertex -17.357364 7.727996 0.000000
      vertex -17.357364 7.727996 5.000000
      vertex -15.371323 11.167920 0.000000
    endloop
  endfacet
  facet normal -0.866025 0.500000 0.000000
    outer loop
      vertex -15.371323 11.167920 0.000000
      vertex -17.357364 7.727996 5.000000
      vertex -15.371323 11.167920 5.000000
    endloop
  endfacet
  facet normal -0.951057 0.309017 0.000000
    outer loop
      vertex -18.584804 3.950322 0.000000
      vertex -18.584804 3.950322 5.000000
      vertex -17.357364 7.727996 0.000000
    endloop
  endfacet
  facet normal -0.951057 0.309017 0.000000
    outer loop
      vertex -17.357364 7.727996 0.000000
      vertex -18.584804 3.950322 5.000000
      vertex -17.357364 7.727996 5.000000
    endloop
  endfacet
  facet normal 0.994522 0.104529 0.000000
    outer loop
      vertex -17.000000 0.000000 5.000000
      vertex -16.628509 -3.534499 5.000000
      vertex -16.628509 -3.534499 0.000000
    endloop
  endfacet
  facet normal 0.994522 0.104529 0.000000
    outer loop
      vertex -17.000000 0.000000 0.000000
      vertex -17.000000 0.000000 5.000000
      vertex -16.628509 -3.534499 0.000000
    endloop
  endfacet
  facet normal 0.994522 -0.104529 0.000000
    outer loop
      vertex -16.628509 3.534499 0.000000
      vertex -16.628509 3.534499 5.000000
      vertex -17.000000 0.000000 5.000000
    endloop
  endfacet
  facet normal 0.994522 -0.104529 0.000000
    outer loop
      vertex -17.000000 0.000000 0.000000
      vertex -16.628509 3.534499 0.000000
      vertex -17.000000 0.000000 5.000000
    endloop
  endfacet
  facet normal 0.951057 -0.309017 0.000000
    outer loop
      vertex -15.530273 6.914523 0.000000
      vertex -15.530273 6.914523 5.000000
      vertex -16.628509 3.534499 5.000000
    endloop
  endfacet
  facet normal 0.951057 -0.309017 0.000000
    outer loop
      vertex -16.628509 3.534499 0.000000
      vertex -15.530273 6.914523 0.000000
      vertex -16.628509 3.534499 5.000000
    endloop
  endfacet
  facet normal 0.866025 -0.500000 0.000000
    outer loop
      vertex -13.753289 9.992349 0.000000
      vertex -13.753289 9.992349 5.000000
      vertex -15.530273 6.914523 5.000000
    endloop
  endfacet
  facet normal 0.866025 -0.500000 0.000000
    outer loop
      vertex -15.530273 6.914523 0.000000
      vertex -13.753289 9.992349 0.000000
      vertex -15.530273 6.914523 5.000000
    endloop
  endfacet
  facet normal 0.743145 -0.669131 0.000000
    outer loop
      vertex -11.375220 12.633462 0.000000
      vertex -11.375220 12.633462 5.000000
      vertex -13.753289 9.992349 5.000000
    endloop
  endfacet
  facet normal 0.743145 -0.669131 0.000000
    outer loop
      vertex -13.753289 9.992349 0.000000
      vertex -11.375220 12.633462 0.000000
      vertex -13.753289 9.992349 5.000000
    endloop
  endfacet
  facet normal 0.587785 -0.809017 0.000000
    outer loop
      vertex -8.500000 14.722432 0.000000
      vertex -8.500000 14.722432 5.000000
      vertex -11.375220 12.633462 5.000000
    endloop
  endfacet
  facet normal 0.587785 -0.809017 0.000000
    outer loop
      vertex -11.375220 12.633462 0.000000
      vertex -8.500000 14.722432 0.000000
      vertex -11.375220 12.633462 5.000000
    endloop
  endfacet
  facet normal 0.406737 -0.913545 0.000000
    outer loop
      vertex -5.253289 16.167961 0.000000
      vertex -5.253289 16.167961 5.000000
      vertex -8.500000 14.722432 5.000000
    endloop
  endfacet
  facet normal 0.406737 -0.913545 0.000000
    outer loop
      vertex -8.500000 14.722432 0.000000
      vertex -5.253289 16.167961 0.000000
      vertex -8.500000 14.722432 5.000000
    endloop
  endfacet
  facet normal 0.207912 -0.978148 0.000000
    outer loop
      vertex -1.776984 16.906872 0.000000
      vertex -1.776984 16.906872 5.000000
      vertex -5.253289 16.167961 5.000000
    endloop
  endfacet
  facet normal 0.207912 -0.978148 0.000000
    outer loop
      vertex -5.253289 16.167961 0.000000
      vertex -1.776984 16.906872 0.000000
      vertex -5.253289 16.167961 5.000000
    endloop
  endfacet
  facet normal 0.000000 -1.000000 0.000000
    outer loop
      vertex 1.776984 16.906872 0.000000
      vertex 1.776984 16.906872 5.000000
      vertex -1.776984 16.906872 5.000000
    endloop
  endfacet
  facet normal -0.000000 -1.000000 -0.000000
    outer loop
      vertex -1.776984 16.906872 0.000000
      vertex 1.776984 16.906872 0.000000
      vertex -1.776984 16.906872 5.000000
    endloop
  endfacet
  facet normal -0.207912 -0.978148 -0.000000
    outer loop
      vertex 5.253289 16.167961 0.000000
      vertex 5.253289 16.167961 5.000000
      vertex 1.776984 16.906872 5.000000
    endloop
  endfacet
  facet normal -0.207912 -0.978148 -0.000000
    outer loop
      vertex 1.776984 16.906872 0.000000
      vertex 5.253289 16.167961 0.000000
      vertex 1.776984 16.906872 5.000000
    endloop
  endfacet
  facet normal -0.406737 -0.913545 -0.000000
    outer loop
      vertex 8.500000 14.722432 0.000000
      vertex 8.500000 14.722432 5.000000
      vertex 5.253289 16.167961 5.000000
    endloop
  endfacet
  facet normal -0.406737 -0.913545 -0.000000
    outer loop
      vertex 5.253289 16.167961 0.000000
      vertex 8.500000 14.722432 0.000000
      vertex 5.253289 16.167961 5.000000
    endloop
  endfacet
  facet normal -0.587785 -0.809017 -0.000000
    outer loop
      vertex 11.375220 12.633462 0.000000
      vertex 11.375220 12.633462 5.000000
      vertex 8.500000 14.722432 5.000000
    endloop
  endfacet
  facet normal -0.587785 -0.809017 -0.000000
    outer loop
      vertex 8.500000 14.722432 0.000000
      vertex 11.375220 12.633462 0.000000
      vertex 8.500000 14.722432 5.000000
    endloop
  endfacet
  facet normal -0.743145 -0.669131 0.000000
    outer loop
      vertex 13.753289 9.992349 5.000000
      vertex 11.375220 12.633462 5.000000
      vertex 13.753289 9.992349 0.000000
    endloop
  endfacet
  facet normal -0.743145 -0.669131 0.000000
    outer loop
      vertex 13.753289 9.992349 0.000000
      vertex 11.375220 12.633462 5.000000
      vertex 11.375220 12.633462 0.000000
    endloop
  endfacet
  facet normal -0.866025 -0.500000 0.000000
    outer loop
      vertex 15.530273 6.914523 5.000000
      vertex 13.753289 9.992349 5.000000
      vertex 15.530273 6.914523 0.000000
    endloop
  endfacet
  facet normal -0.866025 -0.500000 0.000000
    outer loop
      vertex 15.530273 6.914523 0.000000
      vertex 13.753289 9.992349 5.000000
      vertex 13.753289 9.992349 0.000000
    endloop
  endfacet
  facet normal -0.951057 -0.309017 0.000000
    outer loop
      vertex 16.628509 3.534499 5.000000
      vertex 15.530273 6.914523 5.000000
      vertex 16.628509 3.534499 0.000000
    endloop
  endfacet
  facet normal -0.951057 -0.309017 0.000000
    outer loop
      vertex 16.628509 3.534499 0.000000
      vertex 15.530273 6.914523 5.000000
      vertex 15.530273 6.914523 0.000000
    endloop
  endfacet
  facet normal -0.994522 -0.104529 0.000000
    outer loop
      vertex 17.000000 0.000000 5.000000
      vertex 16.628509 3.534499 5.000000
      vertex 17.000000 0.000000 0.000000
    endloop
  endfacet
  facet normal -0.994522 -0.104529 0.000000
    outer loop
      vertex 17.000000 0.000000 0.000000
      vertex 16.628509 3.534499 5.000000
      vertex 16.628509 3.534499 0.000000
    endloop
  endfacet
  facet normal -0.994522 0.104529 0.000000
    outer loop
      vertex 17.000000 0.000000 5.000000
      vertex 17.000000 0.000000 0.000000
      vertex 16.628509 -3.534499 5.000000
    endloop
  endfacet
  facet normal -0.994522 0.104529 0.000000
    outer loop
      vertex 16.628509 -3.534499 5.000000
      vertex 17.000000 0.000000 0.000000
      vertex 16.628509 -3.534499 0.000000
    endloop
  endfacet
  facet normal -0.951057 0.309017 0.000000
    outer loop
      vertex 16.628509 -3.534499 5.000000
      vertex 16.628509 -3.534499 0.000000
      vertex 15.530273 -6.914523 5.000000
    endloop
  endfacet
  facet normal -0.951057 0.309017 0.000000
    outer loop
      vertex 15.530273 -6.914523 5.000000
      vertex 16.628509 -3.534499 0.000000
      vertex 15.530273 -6.914523 0.000000
    endloop
  endfacet
  facet normal -0.866025 0.500000 0.000000
    outer loop
      vertex 15.530273 -6.914523 5.000000
      vertex 15.530273 -6.914523 0.000000
      vertex 13.753289 -9.992349 5.000000
    endloop
  endfacet
  facet normal -0.866025 0.500000 0.000000
    outer loop
      vertex 13.753289 -9.992349 5.000000
      vertex 15.530273 -6.914523 0.000000
      vertex 13.753289 -9.992349 0.000000
    endloop
  endfacet
  facet normal -0.743145 0.669131 0.000000
    outer loop
      vertex 13.753289 -9.992349 5.000000
      vertex 13.753289 -9.992349 0.000000
      vertex 11.375220 -12.633462 5.000000
    endloop
  endfacet
  facet normal -0.743145 0.669131 0.000000
    outer loop
      vertex 11.375220 -12.633462 5.000000
      vertex 13.753289 -9.992349 0.000000
      vertex 11.375220 -12.633462 0.000000
    endloop
  endfacet
  facet normal -0.587785 0.809017 0.000000
    outer loop
      vertex 11.375220 -12.633462 5.000000
      vertex 11.375220 -12.633462 0.000000
      vertex 8.500000 -14.722432 5.000000
    endloop
  endfacet
  facet normal -0.587785 0.809017 0.000000
    outer loop
      vertex 8.500000 -14.722432 5.000000
      vertex 11.375220 -12.633462 0.000000
      vertex 8.500000 -14.722432 0.000000
    endloop
  endfacet
  facet normal -0.406737 0.913545 0.000000
    outer loop
      vertex 8.500000 -14.722432 5.000000
      vertex 8.500000 -14.722432 0.000000
      vertex 5.253289 -16.167961 5.000000
    endloop
  endfacet
  facet normal -0.406737 0.913545 0.000000
    outer loop
      vertex 5.253289 -16.167961 5.000000
      vertex 8.500000 -14.722432 0.000000
      vertex 5.253289 -16.167961 0.000000
    endloop
  endfacet
  facet normal -0.207912 0.978148 0.000000
    outer loop
      vertex 5.253289 -16.167961 5.000000
      vertex 5.253289 -16.167961 0.000000
      vertex 1.776984 -16.906872 5.000000
    endloop
  endfacet
  facet normal -0.207912 0.978148 0.000000
    outer loop
      vertex 1.776984 -16.906872 5.000000
      vertex 5.253289 -16.167961 0.000000
      vertex 1.776984 -16.906872 0.000000
    endloop
  endfacet
  facet normal 0.000000 1.000000 0.000000
    outer loop
      vertex 1.776984 -16.906872 5.000000
      vertex 1.776984 -16.906872 0.000000
      vertex -1.776984 -16.906872 5.000000
    endloop
  endfacet
  facet normal 0.000000 1.000000 -0.000000
    outer loop
      vertex -1.776984 -16.906872 5.000000
      vertex 1.776984 -16.906872 0.000000
      vertex -1.776984 -16.906872 0.000000
    endloop
  endfacet
  facet normal 0.207912 0.978148 -0.000000
    outer loop
      vertex -1.776984 -16.906872 5.000000
      vertex -1.776984 -16.906872 0.000000
      vertex -5.253289 -16.167961 5.000000
    endloop
  endfacet
  facet normal 0.207912 0.978148 -0.000000
    outer loop
      vertex -5.253289 -16.167961 5.000000
      vertex -1.776984 -16.906872 0.000000
      vertex -5.253289 -16.167961 0.000000
    endloop
  endfacet
  facet normal 0.406737 0.913545 -0.000000
    outer loop
      vertex -5.253289 -16.167961 5.000000
      vertex -5.253289 -16.167961 0.000000
      vertex -8.500000 -14.722432 5.000000
    endloop
  endfacet
  facet normal 0.406737 0.913545 -0.000000
    outer loop
      vertex -8.500000 -14.722432 5.000000
      vertex -5.253289 -16.167961 0.000000
      vertex -8.500000 -14.722432 0.000000
    endloop
  endfacet
  facet normal 0.587785 0.809017 -0.000000
    outer loop
      vertex -8.500000 -14.722432 5.000000
      vertex -8.500000 -14.722432 0.000000
      vertex -11.375220 -12.633462 5.000000
    endloop
  endfacet
  facet normal 0.587785 0.809017 -0.000000
    outer loop
      vertex -11.375220 -12.633462 5.000000
      vertex -8.500000 -14.722432 0.000000
      vertex -11.375220 -12.633462 0.000000
    endloop
  endfacet
  facet normal 0.743145 0.669131 0.000000
    outer loop
      vertex -13.753289 -9.992349 5.000000
      vertex -11.375220 -12.633462 5.000000
      vertex -11.375220 -12.633462 0.000000
    endloop
  endfacet
  facet normal 0.743145 0.669131 0.000000
    outer loop
      vertex -13.753289 -9.992349 0.000000
      vertex -13.753289 -9.992349 5.000000
      vertex -11.375220 -12.633462 0.000000
    endloop
  endfacet
  facet normal 0.866025 0.500000 0.000000
    outer loop
      vertex -15.530273 -6.914523 5.000000
      vertex -13.753289 -9.992349 5.000000
      vertex -13.753289 -9.992349 0.000000
    endloop
  endfacet
  facet normal 0.866025 0.500000 0.000000
    outer loop
      vertex -15.530273 -6.914523 0.000000
      vertex -15.530273 -6.914523 5.000000
      vertex -13.753289 -9.992349 0.000000
    endloop
  endfacet
  facet normal 0.951057 0.309017 0.000000
    outer loop
      vertex -16.628509 -3.534499 5.000000
      vertex -15.530273 -6.914523 5.000000
      vertex -15.530273 -6.914523 0.000000
    endloop
  endfacet
  facet normal 0.951057 0.309017 0.000000
    outer loop
      vertex -16.628509 -3.534499 0.000000
      vertex -16.628509 -3.534499 5.000000
      vertex -15.530273 -6.914523 0.000000
    endloop
  endfacet
  facet normal 0.000000 0.000000 1.000000
    outer loop
      vertex -18.584804 3.950322 5.000000
      vertex -19.000000 0.000000 5.000000
      vertex -18.584804 -3.950322 5.000000
    endloop
  endfacet
  facet normal 0.000000 0.000000 1.000000
    outer loop
      vertex -15.371323 -11.167920 5.000000
      vertex -18.584804 3.950322 5.000000
      vertex -17.357364 -7.727996 5.000000
    endloop
  endfacet
  facet normal 0.000000 0.000000 1.000000
    outer loop
      vertex -17.357364 -7.727996 5.000000
      vertex -18.584804 3.950322 5.000000
      vertex -18.584804 -3.950322 5.000000
    endloop
  endfacet
  facet normal -0.000000 -0.000000 1.000000
    outer loop
      vertex -16.628509 -3.534499 5.000000
      vertex -18.584804 3.950322 5.000000
      vertex -15.371323 -11.167920 5.000000
    endloop
  endfacet
  facet normal 0.000000 0.000000 1.000000
    outer loop
      vertex -16.628509 3.534499 5.000000
      vertex -15.530273 6.914523 5.000000
      vertex -18.584804 3.950322 5.000000
    endloop
  endfacet
  facet normal -0.000000 0.000000 1.000000
    outer loop
      vertex -8.500000 -14.722432 5.000000
      vertex -11.375220 -12.633462 5.000000
      vertex -9.500000 -16.454483 5.000000
    endloop
  endfacet
  facet normal 0.000000 0.000000 1.000000
    outer loop
      vertex 15.530273 6.914523 5.000000
      vertex 16.628509 3.534499 5.000000
      vertex 18.584804 3.950322 5.000000
    endloop
  endfacet
  facet normal 0.000000 0.000000 1.000000
    outer loop
      vertex 13.753289 9.992349 5.000000
      vertex 15.530273 6.914523 5.000000
      vertex 17.357364 7.727996 5.000000
    endloop
  endfacet
  facet normal 0.000000 0.000000 1.000000
    outer loop
      vertex 11.375220 12.633462 5.000000
      vertex 13.753289 9.992349 5.000000
      vertex 15.371323 11.167920 5.000000
    endloop
  endfacet
  facet normal 0.000000 0.000000 1.000000
    outer loop
      vertex 8.500000 14.722432 5.000000
      vertex 11.375220 12.633462 5.000000
      vertex 12.713482 14.119752 5.000000
    endloop
  endfacet
  facet normal 0.000000 0.000000 1.000000
    outer loop
      vertex 5.253289 16.167961 5.000000
      vertex 8.500000 14.722432 5.000000
      vertex 9.500000 16.454483 5.000000
    endloop
  endfacet
  facet normal 0.000000 0.000000 1.000000
    outer loop
      vertex -11.375220 12.633462 5.000000
      vertex -8.500000 14.722432 5.000000
      vertex -5.871323 18.070074 5.000000
    endloop
  endfacet
  facet normal 0.000000 0.000000 1.000000
    outer loop
      vertex -5.253289 16.167961 5.000000
      vertex -1.776984 16.906872 5.000000
      vertex -1.986041 18.895916 5.000000
    endloop
  endfacet
  facet normal 0.000000 -0.000000 1.000000
    outer loop
      vertex -12.713482 14.119752 5.000000
      vertex -18.584804 3.950322 5.000000
      vertex -9.500000 16.454483 5.000000
    endloop
  endfacet
  facet normal 0.000000 -0.000000 1.000000
    outer loop
      vertex -15.371323 11.167920 5.000000
      vertex -18.584804 3.950322 5.000000
      vertex -12.713482 14.119752 5.000000
    endloop
  endfacet
  facet normal 0.000000 -0.000000 1.000000
    outer loop
      vertex -17.357364 7.727996 5.000000
      vertex -18.584804 3.950322 5.000000
      vertex -15.371323 11.167920 5.000000
    endloop
  endfacet
  facet normal -0.000000 -0.000000 1.000000
    outer loop
      vertex -15.530273 -6.914523 5.000000
      vertex -16.628509 -3.534499 5.000000
      vertex -15.371323 -11.167920 5.000000
    endloop
  endfacet
  facet normal 0.000000 -0.000000 1.000000
    outer loop
      vertex 15.530273 -6.914523 5.000000
      vertex 13.753289 -9.992349 5.000000
      vertex 17.357364 -7.727996 5.000000
    endloop
  endfacet
  facet normal 0.000000 0.000000 1.000000
    outer loop
      vertex -1.776984 16.906872 5.000000
      vertex 1.776984 16.906872 5.000000
      vertex 1.986041 18.895916 5.000000
    endloop
  endfacet
  facet normal 0.000000 0.000000 1.000000
    outer loop
      vertex 16.628509 3.534499 5.000000
      vertex 17.000000 0.000000 5.000000
      vertex 19.000000 0.000000 5.000000
    endloop
  endfacet
  facet normal 0.000000 0.000000 1.000000
    outer loop
      vertex -9.500000 16.454483 5.000000
      vertex -18.584804 3.950322 5.000000
      vertex -13.753289 9.992349 5.000000
    endloop
  endfacet
  facet normal 0.000000 -0.000000 1.000000
    outer loop
      vertex -9.500000 16.454483 5.000000
      vertex -11.375220 12.633462 5.000000
      vertex -5.871323 18.070074 5.000000
    endloop
  endfacet
  facet normal 0.000000 0.000000 1.000000
    outer loop
      vertex -9.500000 16.454483 5.000000
      vertex -13.753289 9.992349 5.000000
      vertex -11.375220 12.633462 5.000000
    endloop
  endfacet
  facet normal 0.000000 -0.000000 1.000000
    outer loop
      vertex -5.871323 18.070074 5.000000
      vertex -8.500000 14.722432 5.000000
      vertex -1.986041 18.895916 5.000000
    endloop
  endfacet
  facet normal 0.000000 0.000000 1.000000
    outer loop
      vertex -8.500000 14.722432 5.000000
      vertex -5.253289 16.167961 5.000000
      vertex -1.986041 18.895916 5.000000
    endloop
  endfacet
  facet normal 0.000000 0.000000 1.000000
    outer loop
      vertex -1.986041 18.895916 5.000000
      vertex -1.776984 16.906872 5.000000
      vertex 1.986041 18.895916 5.000000
    endloop
  endfacet
  facet normal -0.000000 0.000000 1.000000
    outer loop
      vertex -15.530273 6.914523 5.000000
      vertex -13.753289 9.992349 5.000000
      vertex -18.584804 3.950322 5.000000
    endloop
  endfacet
  facet normal 0.000000 -0.000000 1.000000
    outer loop
      vertex 1.986041 18.895916 5.000000
      vertex 1.776984 16.906872 5.000000
      vertex 5.871323 18.070074 5.000000
    endloop
  endfacet
  facet normal 0.000000 -0.000000 1.000000
    outer loop
      vertex 5.871323 18.070074 5.000000
      vertex 5.253289 16.167961 5.000000
      vertex 9.500000 16.454483 5.000000
    endloop
  endfacet
  facet normal 0.000000 -0.000000 1.000000
    outer loop
      vertex 9.500000 16.454483 5.000000
      vertex 8.500000 14.722432 5.000000
      vertex 12.713482 14.119752 5.000000
    endloop
  endfacet
  facet normal 0.000000 -0.000000 1.000000
    outer loop
      vertex 12.713482 14.119752 5.000000
      vertex 11.375220 12.633462 5.000000
      vertex 15.371323 11.167920 5.000000
    endloop
  endfacet
  facet normal 0.000000 -0.000000 1.000000
    outer loop
      vertex 15.371323 11.167920 5.000000
      vertex 13.753289 9.992349 5.000000
      vertex 17.357364 7.727996 5.000000
    endloop
  endfacet
  facet normal 0.000000 -0.000000 1.000000
    outer loop
      vertex 17.357364 7.727996 5.000000
      vertex 15.530273 6.914523 5.000000
      vertex 18.584804 3.950322 5.000000
    endloop
  endfacet
  facet normal 0.000000 -0.000000 1.000000
    outer loop
      vertex 18.584804 3.950322 5.000000
      vertex 16.628509 3.534499 5.000000
      vertex 19.000000 0.000000 5.000000
    endloop
  endfacet
  facet normal 0.000000 0.000000 1.000000
    outer loop
      vertex 19.000000 0.000000 5.000000
      vertex 17.000000 0.000000 5.000000
      vertex 18.584804 -3.950322 5.000000
    endloop
  endfacet
  facet normal -0.000000 0.000000 1.000000
    outer loop
      vertex 18.584804 -3.950322 5.000000
      vertex 16.628509 -3.534499 5.000000
      vertex 17.357364 -7.727996 5.000000
    endloop
  endfacet
  facet normal 0.000000 0.000000 1.000000
    outer loop
      vertex 1.776984 16.906872 5.000000
      vertex 5.253289 16.167961 5.000000
      vertex 5.871323 18.070074 5.000000
    endloop
  endfacet
  facet normal 0.000000 -0.000000 1.000000
    outer loop
      vertex 16.628509 -3.534499 5.000000
      vertex 15.530273 -6.914523 5.000000
      vertex 17.357364 -7.727996 5.000000
    endloop
  endfacet
  facet normal 0.000000 0.000000 1.000000
    outer loop
      vertex 17.357364 -7.727996 5.000000
      vertex 13.753289 -9.992349 5.000000
      vertex 15.371323 -11.167920 5.000000
    endloop
  endfacet
  facet normal 0.000000 0.000000 1.000000
    outer loop
      vertex 15.371323 -11.167920 5.000000
      vertex 11.375220 -12.633462 5.000000
      vertex 12.713482 -14.119752 5.000000
    endloop
  endfacet
  facet normal 0.000000 0.000000 1.000000
    outer loop
      vertex 12.713482 -14.119752 5.000000
      vertex 8.500000 -14.722432 5.000000
      vertex 9.500000 -16.454483 5.000000
    endloop
  endfacet
  facet normal -0.000000 0.000000 1.000000
    outer loop
      vertex 9.500000 -16.454483 5.000000
      vertex 5.253289 -16.167961 5.000000
      vertex 5.871323 -18.070074 5.000000
    endloop
  endfacet
  facet normal -0.000000 0.000000 1.000000
    outer loop
      vertex 5.871323 -18.070074 5.000000
      vertex 1.776984 -16.906872 5.000000
      vertex 1.986041 -18.895916 5.000000
    endloop
  endfacet
  facet normal -0.000000 0.000000 1.000000
    outer loop
      vertex 1.986041 -18.895916 5.000000
      vertex -1.776984 -16.906872 5.000000
      vertex -1.986041 -18.895916 5.000000
    endloop
  endfacet
  facet normal 0.000000 0.000000 1.000000
    outer loop
      vertex -1.986041 -18.895916 5.000000
      vertex -5.253289 -16.167961 5.000000
      vertex -5.871323 -18.070074 5.000000
    endloop
  endfacet
  facet normal 0.000000 -0.000000 1.000000
    outer loop
      vertex 17.000000 0.000000 5.000000
      vertex 16.628509 -3.534499 5.000000
      vertex 18.584804 -3.950322 5.000000
    endloop
  endfacet
  facet normal 0.000000 0.000000 1.000000
    outer loop
      vertex -5.871323 -18.070074 5.000000
      vertex -8.500000 -14.722432 5.000000
      vertex -9.500000 -16.454483 5.000000
    endloop
  endfacet
  facet normal 0.000000 0.000000 1.000000
    outer loop
      vertex -9.500000 -16.454483 5.000000
      vertex -11.375220 -12.633462 5.000000
      vertex -12.713482 -14.119752 5.000000
    endloop
  endfacet
  facet normal -0.000000 0.000000 1.000000
    outer loop
      vertex -11.375220 -12.633462 5.000000
      vertex -13.753289 -9.992349 5.000000
      vertex -12.713482 -14.119752 5.000000
    endloop
  endfacet
  facet normal 0.000000 0.000000 1.000000
    outer loop
      vertex -12.713482 -14.119752 5.000000
      vertex -15.530273 -6.914523 5.000000
      vertex -15.371323 -11.167920 5.000000
    endloop
  endfacet
  facet normal 0.000000 0.000000 1.000000
    outer loop
      vertex -16.628509 -3.534499 5.000000
      vertex -17.000000 0.000000 5.000000
      vertex -18.584804 3.950322 5.000000
    endloop
  endfacet
  facet normal 0.000000 -0.000000 1.000000
    outer loop
      vertex 13.753289 -9.992349 5.000000
      vertex 11.375220 -12.633462 5.000000
      vertex 15.371323 -11.167920 5.000000
    endloop
  endfacet
  facet normal 0.000000 -0.000000 1.000000
    outer loop
      vertex 11.375220 -12.633462 5.000000
      vertex 8.500000 -14.722432 5.000000
      vertex 12.713482 -14.119752 5.000000
    endloop
  endfacet
  facet normal 0.000000 -0.000000 1.000000
    outer loop
      vertex 8.500000 -14.722432 5.000000
      vertex 5.253289 -16.167961 5.000000
      vertex 9.500000 -16.454483 5.000000
    endloop
  endfacet
  facet normal 0.000000 -0.000000 1.000000
    outer loop
      vertex 5.253289 -16.167961 5.000000
      vertex 1.776984 -16.906872 5.000000
      vertex 5.871323 -18.070074 5.000000
    endloop
  endfacet
  facet normal 0.000000 -0.000000 1.000000
    outer loop
      vertex 1.776984 -16.906872 5.000000
      vertex -1.776984 -16.906872 5.000000
      vertex 1.986041 -18.895916 5.000000
    endloop
  endfacet
  facet normal -0.000000 0.000000 1.000000
    outer loop
      vertex -1.776984 -16.906872 5.000000
      vertex -5.253289 -16.167961 5.000000
      vertex -1.986041 -18.895916 5.000000
    endloop
  endfacet
  facet normal -0.000000 0.000000 1.000000
    outer loop
      vertex -5.253289 -16.167961 5.000000
      vertex -8.500000 -14.722432 5.000000
      vertex -5.871323 -18.070074 5.000000
    endloop
  endfacet
  facet normal -0.000000 -0.000000 1.000000
    outer loop
      vertex -13.753289 -9.992349 5.000000
      vertex -15.530273 -6.914523 5.000000
      vertex -12.713482 -14.119752 5.000000
    endloop
  endfacet
  facet normal 0.000000 0.000000 1.000000
    outer loop
      vertex -17.000000 0.000000 5.000000
      vertex -16.628509 3.534499 5.000000
      vertex -18.584804 3.950322 5.000000
    endloop
  endfacet
endsolid OpenSCAD_Model
